<svg width="300" height="152" viewBox="0 0 300 152" fill="none" xmlns="http://www.w3.org/2000/svg">
<path d="M5.84375 36.5938C5.84375 29.9062 11.2188 25.7188 19.75 25.7188C28.0938 25.7188 33.1875 29.4688 33.5938 35.9375H25.5312C25.125 33.6562 22.875 32.25 19.6875 32.25C16.4375 32.25 14.2812 33.7188 14.2812 35.9062C14.2812 37.7812 15.7188 38.9062 19.0625 39.5938L24.4062 40.6875C31.375 42.125 34.4688 45.0938 34.4688 50.3438C34.4688 57.3125 28.7812 61.7188 19.8125 61.7188C11 61.7188 5.5625 57.9375 5.09375 51.4688H13.5312C14.0625 53.8438 16.375 55.1562 19.9375 55.1562C23.4375 55.1562 25.6875 53.6875 25.6875 51.4375C25.6875 49.5 24.375 48.5625 20.75 47.7812L15.5938 46.6875C9.125 45.2812 5.84375 41.9062 5.84375 36.5938ZM63.1875 26C71.0938 26 75.75 31.4375 75.75 40.8125V46.75C75.75 56.1562 71.0938 61.5938 63.1875 61.5938C58.2188 61.5938 54.7812 59.2812 53.625 55.1562H53V72.4688H44.0938V26.5312H52.875V32.4688H53.5312C54.75 28.3125 58.1562 26 63.1875 26ZM59.9062 33.4375C55.4688 33.4375 52.7812 36.3125 52.7812 41.0625V46.7812C52.7812 51.5312 55.4688 54.4062 59.9062 54.4062C64.3125 54.4062 67.0312 51.5 67.0312 46.7812V41.0625C67.0312 36.3438 64.3125 33.4375 59.9062 33.4375ZM94.25 61.5625C87.75 61.5625 83.375 57.375 83.375 51.1562C83.375 44.9375 87.9062 41.2812 96.4062 40.6875L104.469 40.1875V37.4375C104.469 34.4375 102.406 32.6875 98.875 32.6875C95.9062 32.6875 93.6875 34 92.9688 36.1562H84.6562C85.2812 29.9062 90.9375 25.875 99.125 25.875C107.969 25.875 112.938 30.0938 112.938 37.625V61H104.812V56.4062H104.062C102.375 59.6562 98.75 61.5625 94.25 61.5625ZM97.1875 54.7188C101.438 54.7188 104.469 52.0312 104.469 48.1875V45.6875L97.8438 46.0938C93.8438 46.3438 91.8125 47.875 91.8125 50.5312C91.8125 53.0938 93.875 54.7188 97.1875 54.7188ZM154.062 38.5625H145.688C145.125 34.6875 142.812 32.8125 139.094 32.8125C134.5 32.8125 131.969 36.25 131.969 42.5625V44.875C131.969 51.1875 134.5 54.625 139.094 54.625C142.844 54.625 145.094 52.8438 145.688 49.1562H154.062C153.312 57.375 148.062 61.75 139.156 61.75C129 61.75 123.375 56 123.375 45.5312V41.9062C123.375 31.4375 129 25.6875 139.156 25.6875C148.062 25.6875 153.25 30.125 154.062 38.5625ZM185.5 51.3125H193.562C192.844 57.4062 186.75 61.75 178.75 61.75C168.719 61.75 162.969 56.125 162.969 46.3438V40.8125C162.969 31.7812 169.219 25.8125 178.594 25.8125C187.719 25.8125 193.562 31.8125 193.562 41.0625V45.8125H171.344V47.6875C171.344 52.1875 174.25 55.125 178.719 55.125C182.156 55.125 184.875 53.5625 185.5 51.3125ZM178.438 32.4375C174 32.4375 171.344 35.4062 171.344 40.3438H185.312C185.312 35.4062 182.75 32.4375 178.438 32.4375Z" fill="#00FE03"/>
<path d="M217.594 61.5938C213.812 61.5938 210.719 58.4062 210.719 54.5625C210.719 50.6875 213.812 47.5 217.594 47.5C221.375 47.5 224.469 50.6875 224.469 54.5625C224.469 58.4062 221.375 61.5938 217.594 61.5938Z" fill="#929292"/>
<path d="M19.125 121.719V130.719H29.125V137H4.375V130.719H10.9375V108.844H3.75V102.531H19.1875V111.375H20.5312C22.0312 104.531 25.5625 101.625 32.0625 101.625C34 101.625 35.75 101.875 36.9688 102.344V111.625C35.4062 111.031 33.1562 110.625 31.2188 110.625C23.0938 110.625 19.125 114.312 19.125 121.719ZM66.8125 127.312H74.875C74.1562 133.406 68.0625 137.75 60.0625 137.75C50.0312 137.75 44.2812 132.125 44.2812 122.344V116.812C44.2812 107.781 50.5312 101.812 59.9062 101.812C69.0312 101.812 74.875 107.812 74.875 117.062V121.812H52.6562V123.688C52.6562 128.188 55.5625 131.125 60.0312 131.125C63.4688 131.125 66.1875 129.562 66.8125 127.312ZM59.75 108.438C55.3125 108.438 52.6562 111.406 52.6562 116.344H66.625C66.625 111.406 64.0625 108.438 59.75 108.438ZM102.75 102C110.656 102 115.312 107.438 115.312 116.812V122.75C115.312 132.156 110.656 137.594 102.75 137.594C97.7812 137.594 94.3438 135.281 93.1875 131.156H92.5625V148.469H83.6562V102.531H92.4375V108.469H93.0938C94.3125 104.312 97.7188 102 102.75 102ZM99.4688 109.438C95.0312 109.438 92.3438 112.312 92.3438 117.062V122.781C92.3438 127.531 95.0312 130.406 99.4688 130.406C103.875 130.406 106.594 127.5 106.594 122.781V117.062C106.594 112.344 103.875 109.438 99.4688 109.438ZM145.938 127.312H154C153.281 133.406 147.188 137.75 139.188 137.75C129.156 137.75 123.406 132.125 123.406 122.344V116.812C123.406 107.781 129.656 101.812 139.031 101.812C148.156 101.812 154 107.812 154 117.062V121.812H131.781V123.688C131.781 128.188 134.688 131.125 139.156 131.125C142.594 131.125 145.312 129.562 145.938 127.312ZM138.875 108.438C134.438 108.438 131.781 111.406 131.781 116.344H145.75C145.75 111.406 143.188 108.438 138.875 108.438ZM173.375 137.562C166.875 137.562 162.5 133.375 162.5 127.156C162.5 120.938 167.031 117.281 175.531 116.688L183.594 116.188V113.438C183.594 110.438 181.531 108.688 178 108.688C175.031 108.688 172.812 110 172.094 112.156H163.781C164.406 105.906 170.062 101.875 178.25 101.875C187.094 101.875 192.062 106.094 192.062 113.625V137H183.938V132.406H183.188C181.5 135.656 177.875 137.562 173.375 137.562ZM176.312 130.719C180.562 130.719 183.594 128.031 183.594 124.188V121.688L176.969 122.094C172.969 122.344 170.938 123.875 170.938 126.531C170.938 129.094 173 130.719 176.312 130.719ZM210.469 92.6875H218.844V102.875H231.688V109.719H219V126.188C219 128.781 220.844 130.25 224.125 130.25C224.938 130.25 230.906 130.219 231.281 130.188V136.938C230.938 137 224.125 137.062 223.438 137.062C214.062 137.062 210.469 134.094 210.469 126.094V109.719H201.5V102.875H210.469V92.6875Z" fill="#929292"/>
</svg>
